<?xml version="1.0" encoding="utf-8" standalone="no"?>
<!DOCTYPE svg PUBLIC "-//W3C//DTD SVG 1.1//EN"
  "http://www.w3.org/Graphics/SVG/1.1/DTD/svg11.dtd">
<svg xmlns:xlink="http://www.w3.org/1999/xlink" width="318.504687pt" height="164.18125pt" viewBox="0 0 318.504687 164.18125" xmlns="http://www.w3.org/2000/svg" version="1.1">
 <metadata>
  <rdf:RDF xmlns:dc="http://purl.org/dc/elements/1.1/" xmlns:cc="http://creativecommons.org/ns#" xmlns:rdf="http://www.w3.org/1999/02/22-rdf-syntax-ns#">
   <cc:Work>
    <dc:type rdf:resource="http://purl.org/dc/dcmitype/StillImage"/>
    <dc:date>2025-12-08T13:41:33.083322</dc:date>
    <dc:format>image/svg+xml</dc:format>
    <dc:creator>
     <cc:Agent>
      <dc:title>Matplotlib v3.9.4, https://matplotlib.org/</dc:title>
     </cc:Agent>
    </dc:creator>
   </cc:Work>
  </rdf:RDF>
 </metadata>
 <defs>
  <style type="text/css">*{stroke-linejoin: round; stroke-linecap: butt}</style>
 </defs>
 <g id="figure_1">
  <g id="patch_1">
   <path d="M -0 164.18125 
L 318.504687 164.18125 
L 318.504687 0 
L -0 0 
L -0 164.18125 
z
" style="fill: none"/>
  </g>
  <g id="legend_1">
   <g id="patch_2">
    <path d="M 9.2 156.98125 
L 309.304688 156.98125 
Q 311.304688 156.98125 311.304688 154.98125 
L 311.304688 9.2 
Q 311.304688 7.2 309.304688 7.2 
L 9.2 7.2 
Q 7.2 7.2 7.2 9.2 
L 7.2 154.98125 
Q 7.2 156.98125 9.2 156.98125 
z
" style="fill: #ffffff; opacity: 0.8; stroke: #cccccc; stroke-linejoin: miter"/>
   </g>
   <g id="line2d_1">
    <path d="M 11.2 15.298437 
L 21.2 15.298437 
L 31.2 15.298437 
" style="fill: none; stroke: #1f77b4; stroke-width: 2; stroke-linecap: square"/>
    <defs>
     <path id="me66cdd3ce9" d="M 0 3 
C 0.795609 3 1.55874 2.683901 2.12132 2.12132 
C 2.683901 1.55874 3 0.795609 3 0 
C 3 -0.795609 2.683901 -1.55874 2.12132 -2.12132 
C 1.55874 -2.683901 0.795609 -3 0 -3 
C -0.795609 -3 -1.55874 -2.683901 -2.12132 -2.12132 
C -2.683901 -1.55874 -3 -0.795609 -3 0 
C -3 0.795609 -2.683901 1.55874 -2.12132 2.12132 
C -1.55874 2.683901 -0.795609 3 0 3 
z
" style="stroke: #1f77b4"/>
    </defs>
    <g>
     <use xlink:href="#me66cdd3ce9" x="21.2" y="15.298437" style="fill: #1f77b4; stroke: #1f77b4"/>
    </g>
   </g>
   <g id="text_1">
    <!-- NIH (USA) -->
    <g transform="translate(39.2 18.798437) scale(0.1 -0.1)">
     <defs>
      <path id="DejaVuSans-4e" d="M 628 4666 
L 1478 4666 
L 3547 763 
L 3547 4666 
L 4159 4666 
L 4159 0 
L 3309 0 
L 1241 3903 
L 1241 0 
L 628 0 
L 628 4666 
z
" transform="scale(0.015625)"/>
      <path id="DejaVuSans-49" d="M 628 4666 
L 1259 4666 
L 1259 0 
L 628 0 
L 628 4666 
z
" transform="scale(0.015625)"/>
      <path id="DejaVuSans-48" d="M 628 4666 
L 1259 4666 
L 1259 2753 
L 3553 2753 
L 3553 4666 
L 4184 4666 
L 4184 0 
L 3553 0 
L 3553 2222 
L 1259 2222 
L 1259 0 
L 628 0 
L 628 4666 
z
" transform="scale(0.015625)"/>
      <path id="DejaVuSans-20" transform="scale(0.015625)"/>
      <path id="DejaVuSans-28" d="M 1984 4856 
Q 1566 4138 1362 3434 
Q 1159 2731 1159 2009 
Q 1159 1288 1364 580 
Q 1569 -128 1984 -844 
L 1484 -844 
Q 1016 -109 783 600 
Q 550 1309 550 2009 
Q 550 2706 781 3412 
Q 1013 4119 1484 4856 
L 1984 4856 
z
" transform="scale(0.015625)"/>
      <path id="DejaVuSans-55" d="M 556 4666 
L 1191 4666 
L 1191 1831 
Q 1191 1081 1462 751 
Q 1734 422 2344 422 
Q 2950 422 3222 751 
Q 3494 1081 3494 1831 
L 3494 4666 
L 4128 4666 
L 4128 1753 
Q 4128 841 3676 375 
Q 3225 -91 2344 -91 
Q 1459 -91 1007 375 
Q 556 841 556 1753 
L 556 4666 
z
" transform="scale(0.015625)"/>
      <path id="DejaVuSans-53" d="M 3425 4513 
L 3425 3897 
Q 3066 4069 2747 4153 
Q 2428 4238 2131 4238 
Q 1616 4238 1336 4038 
Q 1056 3838 1056 3469 
Q 1056 3159 1242 3001 
Q 1428 2844 1947 2747 
L 2328 2669 
Q 3034 2534 3370 2195 
Q 3706 1856 3706 1288 
Q 3706 609 3251 259 
Q 2797 -91 1919 -91 
Q 1588 -91 1214 -16 
Q 841 59 441 206 
L 441 856 
Q 825 641 1194 531 
Q 1563 422 1919 422 
Q 2459 422 2753 634 
Q 3047 847 3047 1241 
Q 3047 1584 2836 1778 
Q 2625 1972 2144 2069 
L 1759 2144 
Q 1053 2284 737 2584 
Q 422 2884 422 3419 
Q 422 4038 858 4394 
Q 1294 4750 2059 4750 
Q 2388 4750 2728 4690 
Q 3069 4631 3425 4513 
z
" transform="scale(0.015625)"/>
      <path id="DejaVuSans-41" d="M 2188 4044 
L 1331 1722 
L 3047 1722 
L 2188 4044 
z
M 1831 4666 
L 2547 4666 
L 4325 0 
L 3669 0 
L 3244 1197 
L 1141 1197 
L 716 0 
L 50 0 
L 1831 4666 
z
" transform="scale(0.015625)"/>
      <path id="DejaVuSans-29" d="M 513 4856 
L 1013 4856 
Q 1481 4119 1714 3412 
Q 1947 2706 1947 2009 
Q 1947 1309 1714 600 
Q 1481 -109 1013 -844 
L 513 -844 
Q 928 -128 1133 580 
Q 1338 1288 1338 2009 
Q 1338 2731 1133 3434 
Q 928 4138 513 4856 
z
" transform="scale(0.015625)"/>
     </defs>
     <use xlink:href="#DejaVuSans-4e"/>
     <use xlink:href="#DejaVuSans-49" x="74.804688"/>
     <use xlink:href="#DejaVuSans-48" x="104.296875"/>
     <use xlink:href="#DejaVuSans-20" x="179.492188"/>
     <use xlink:href="#DejaVuSans-28" x="211.279297"/>
     <use xlink:href="#DejaVuSans-55" x="250.292969"/>
     <use xlink:href="#DejaVuSans-53" x="323.486328"/>
     <use xlink:href="#DejaVuSans-41" x="388.837891"/>
     <use xlink:href="#DejaVuSans-29" x="457.246094"/>
    </g>
   </g>
   <g id="line2d_2">
    <path d="M 11.2 29.976562 
L 21.2 29.976562 
L 31.2 29.976562 
" style="fill: none; stroke: #ff7f0e; stroke-width: 2; stroke-linecap: square"/>
    <defs>
     <path id="mb343db013e" d="M -3 3 
L 3 3 
L 3 -3 
L -3 -3 
z
" style="stroke: #ff7f0e; stroke-linejoin: miter"/>
    </defs>
    <g>
     <use xlink:href="#mb343db013e" x="21.2" y="29.976562" style="fill: #ff7f0e; stroke: #ff7f0e; stroke-linejoin: miter"/>
    </g>
   </g>
   <g id="text_2">
    <!-- NSFC (China) -->
    <g transform="translate(39.2 33.476562) scale(0.1 -0.1)">
     <defs>
      <path id="DejaVuSans-46" d="M 628 4666 
L 3309 4666 
L 3309 4134 
L 1259 4134 
L 1259 2759 
L 3109 2759 
L 3109 2228 
L 1259 2228 
L 1259 0 
L 628 0 
L 628 4666 
z
" transform="scale(0.015625)"/>
      <path id="DejaVuSans-43" d="M 4122 4306 
L 4122 3641 
Q 3803 3938 3442 4084 
Q 3081 4231 2675 4231 
Q 1875 4231 1450 3742 
Q 1025 3253 1025 2328 
Q 1025 1406 1450 917 
Q 1875 428 2675 428 
Q 3081 428 3442 575 
Q 3803 722 4122 1019 
L 4122 359 
Q 3791 134 3420 21 
Q 3050 -91 2638 -91 
Q 1578 -91 968 557 
Q 359 1206 359 2328 
Q 359 3453 968 4101 
Q 1578 4750 2638 4750 
Q 3056 4750 3426 4639 
Q 3797 4528 4122 4306 
z
" transform="scale(0.015625)"/>
      <path id="DejaVuSans-68" d="M 3513 2113 
L 3513 0 
L 2938 0 
L 2938 2094 
Q 2938 2591 2744 2837 
Q 2550 3084 2163 3084 
Q 1697 3084 1428 2787 
Q 1159 2491 1159 1978 
L 1159 0 
L 581 0 
L 581 4863 
L 1159 4863 
L 1159 2956 
Q 1366 3272 1645 3428 
Q 1925 3584 2291 3584 
Q 2894 3584 3203 3211 
Q 3513 2838 3513 2113 
z
" transform="scale(0.015625)"/>
      <path id="DejaVuSans-69" d="M 603 3500 
L 1178 3500 
L 1178 0 
L 603 0 
L 603 3500 
z
M 603 4863 
L 1178 4863 
L 1178 4134 
L 603 4134 
L 603 4863 
z
" transform="scale(0.015625)"/>
      <path id="DejaVuSans-6e" d="M 3513 2113 
L 3513 0 
L 2938 0 
L 2938 2094 
Q 2938 2591 2744 2837 
Q 2550 3084 2163 3084 
Q 1697 3084 1428 2787 
Q 1159 2491 1159 1978 
L 1159 0 
L 581 0 
L 581 3500 
L 1159 3500 
L 1159 2956 
Q 1366 3272 1645 3428 
Q 1925 3584 2291 3584 
Q 2894 3584 3203 3211 
Q 3513 2838 3513 2113 
z
" transform="scale(0.015625)"/>
      <path id="DejaVuSans-61" d="M 2194 1759 
Q 1497 1759 1228 1600 
Q 959 1441 959 1056 
Q 959 750 1161 570 
Q 1363 391 1709 391 
Q 2188 391 2477 730 
Q 2766 1069 2766 1631 
L 2766 1759 
L 2194 1759 
z
M 3341 1997 
L 3341 0 
L 2766 0 
L 2766 531 
Q 2569 213 2275 61 
Q 1981 -91 1556 -91 
Q 1019 -91 701 211 
Q 384 513 384 1019 
Q 384 1609 779 1909 
Q 1175 2209 1959 2209 
L 2766 2209 
L 2766 2266 
Q 2766 2663 2505 2880 
Q 2244 3097 1772 3097 
Q 1472 3097 1187 3025 
Q 903 2953 641 2809 
L 641 3341 
Q 956 3463 1253 3523 
Q 1550 3584 1831 3584 
Q 2591 3584 2966 3190 
Q 3341 2797 3341 1997 
z
" transform="scale(0.015625)"/>
     </defs>
     <use xlink:href="#DejaVuSans-4e"/>
     <use xlink:href="#DejaVuSans-53" x="74.804688"/>
     <use xlink:href="#DejaVuSans-46" x="138.28125"/>
     <use xlink:href="#DejaVuSans-43" x="195.800781"/>
     <use xlink:href="#DejaVuSans-20" x="265.625"/>
     <use xlink:href="#DejaVuSans-28" x="297.412109"/>
     <use xlink:href="#DejaVuSans-43" x="336.425781"/>
     <use xlink:href="#DejaVuSans-68" x="406.25"/>
     <use xlink:href="#DejaVuSans-69" x="469.628906"/>
     <use xlink:href="#DejaVuSans-6e" x="497.412109"/>
     <use xlink:href="#DejaVuSans-61" x="560.791016"/>
     <use xlink:href="#DejaVuSans-29" x="622.070312"/>
    </g>
   </g>
   <g id="line2d_3">
    <path d="M 11.2 44.654687 
L 21.2 44.654687 
L 31.2 44.654687 
" style="fill: none; stroke: #2ca02c; stroke-width: 2; stroke-linecap: square"/>
    <defs>
     <path id="m41bcd5abae" d="M 0 -3 
L -3 3 
L 3 3 
z
" style="stroke: #2ca02c; stroke-linejoin: miter"/>
    </defs>
    <g>
     <use xlink:href="#m41bcd5abae" x="21.2" y="44.654687" style="fill: #2ca02c; stroke: #2ca02c; stroke-linejoin: miter"/>
    </g>
   </g>
   <g id="text_3">
    <!-- EC (Europe) -->
    <g transform="translate(39.2 48.154687) scale(0.1 -0.1)">
     <defs>
      <path id="DejaVuSans-45" d="M 628 4666 
L 3578 4666 
L 3578 4134 
L 1259 4134 
L 1259 2753 
L 3481 2753 
L 3481 2222 
L 1259 2222 
L 1259 531 
L 3634 531 
L 3634 0 
L 628 0 
L 628 4666 
z
" transform="scale(0.015625)"/>
      <path id="DejaVuSans-75" d="M 544 1381 
L 544 3500 
L 1119 3500 
L 1119 1403 
Q 1119 906 1312 657 
Q 1506 409 1894 409 
Q 2359 409 2629 706 
Q 2900 1003 2900 1516 
L 2900 3500 
L 3475 3500 
L 3475 0 
L 2900 0 
L 2900 538 
Q 2691 219 2414 64 
Q 2138 -91 1772 -91 
Q 1169 -91 856 284 
Q 544 659 544 1381 
z
M 1991 3584 
L 1991 3584 
z
" transform="scale(0.015625)"/>
      <path id="DejaVuSans-72" d="M 2631 2963 
Q 2534 3019 2420 3045 
Q 2306 3072 2169 3072 
Q 1681 3072 1420 2755 
Q 1159 2438 1159 1844 
L 1159 0 
L 581 0 
L 581 3500 
L 1159 3500 
L 1159 2956 
Q 1341 3275 1631 3429 
Q 1922 3584 2338 3584 
Q 2397 3584 2469 3576 
Q 2541 3569 2628 3553 
L 2631 2963 
z
" transform="scale(0.015625)"/>
      <path id="DejaVuSans-6f" d="M 1959 3097 
Q 1497 3097 1228 2736 
Q 959 2375 959 1747 
Q 959 1119 1226 758 
Q 1494 397 1959 397 
Q 2419 397 2687 759 
Q 2956 1122 2956 1747 
Q 2956 2369 2687 2733 
Q 2419 3097 1959 3097 
z
M 1959 3584 
Q 2709 3584 3137 3096 
Q 3566 2609 3566 1747 
Q 3566 888 3137 398 
Q 2709 -91 1959 -91 
Q 1206 -91 779 398 
Q 353 888 353 1747 
Q 353 2609 779 3096 
Q 1206 3584 1959 3584 
z
" transform="scale(0.015625)"/>
      <path id="DejaVuSans-70" d="M 1159 525 
L 1159 -1331 
L 581 -1331 
L 581 3500 
L 1159 3500 
L 1159 2969 
Q 1341 3281 1617 3432 
Q 1894 3584 2278 3584 
Q 2916 3584 3314 3078 
Q 3713 2572 3713 1747 
Q 3713 922 3314 415 
Q 2916 -91 2278 -91 
Q 1894 -91 1617 61 
Q 1341 213 1159 525 
z
M 3116 1747 
Q 3116 2381 2855 2742 
Q 2594 3103 2138 3103 
Q 1681 3103 1420 2742 
Q 1159 2381 1159 1747 
Q 1159 1113 1420 752 
Q 1681 391 2138 391 
Q 2594 391 2855 752 
Q 3116 1113 3116 1747 
z
" transform="scale(0.015625)"/>
      <path id="DejaVuSans-65" d="M 3597 1894 
L 3597 1613 
L 953 1613 
Q 991 1019 1311 708 
Q 1631 397 2203 397 
Q 2534 397 2845 478 
Q 3156 559 3463 722 
L 3463 178 
Q 3153 47 2828 -22 
Q 2503 -91 2169 -91 
Q 1331 -91 842 396 
Q 353 884 353 1716 
Q 353 2575 817 3079 
Q 1281 3584 2069 3584 
Q 2775 3584 3186 3129 
Q 3597 2675 3597 1894 
z
M 3022 2063 
Q 3016 2534 2758 2815 
Q 2500 3097 2075 3097 
Q 1594 3097 1305 2825 
Q 1016 2553 972 2059 
L 3022 2063 
z
" transform="scale(0.015625)"/>
     </defs>
     <use xlink:href="#DejaVuSans-45"/>
     <use xlink:href="#DejaVuSans-43" x="63.183594"/>
     <use xlink:href="#DejaVuSans-20" x="133.007812"/>
     <use xlink:href="#DejaVuSans-28" x="164.794922"/>
     <use xlink:href="#DejaVuSans-45" x="203.808594"/>
     <use xlink:href="#DejaVuSans-75" x="266.992188"/>
     <use xlink:href="#DejaVuSans-72" x="330.371094"/>
     <use xlink:href="#DejaVuSans-6f" x="369.234375"/>
     <use xlink:href="#DejaVuSans-70" x="430.416016"/>
     <use xlink:href="#DejaVuSans-65" x="493.892578"/>
     <use xlink:href="#DejaVuSans-29" x="555.416016"/>
    </g>
   </g>
   <g id="line2d_4">
    <path d="M 11.2 59.332812 
L 21.2 59.332812 
L 31.2 59.332812 
" style="fill: none; stroke: #d62728; stroke-width: 2; stroke-linecap: square"/>
    <defs>
     <path id="mdd4ff25f2d" d="M -0 4.242641 
L 4.242641 0 
L 0 -4.242641 
L -4.242641 -0 
z
" style="stroke: #d62728; stroke-linejoin: miter"/>
    </defs>
    <g>
     <use xlink:href="#mdd4ff25f2d" x="21.2" y="59.332812" style="fill: #d62728; stroke: #d62728; stroke-linejoin: miter"/>
    </g>
   </g>
   <g id="text_4">
    <!-- UK Research and Innovation (UK) -->
    <g transform="translate(39.2 62.832812) scale(0.1 -0.1)">
     <defs>
      <path id="DejaVuSans-4b" d="M 628 4666 
L 1259 4666 
L 1259 2694 
L 3353 4666 
L 4166 4666 
L 1850 2491 
L 4331 0 
L 3500 0 
L 1259 2247 
L 1259 0 
L 628 0 
L 628 4666 
z
" transform="scale(0.015625)"/>
      <path id="DejaVuSans-52" d="M 2841 2188 
Q 3044 2119 3236 1894 
Q 3428 1669 3622 1275 
L 4263 0 
L 3584 0 
L 2988 1197 
Q 2756 1666 2539 1819 
Q 2322 1972 1947 1972 
L 1259 1972 
L 1259 0 
L 628 0 
L 628 4666 
L 2053 4666 
Q 2853 4666 3247 4331 
Q 3641 3997 3641 3322 
Q 3641 2881 3436 2590 
Q 3231 2300 2841 2188 
z
M 1259 4147 
L 1259 2491 
L 2053 2491 
Q 2509 2491 2742 2702 
Q 2975 2913 2975 3322 
Q 2975 3731 2742 3939 
Q 2509 4147 2053 4147 
L 1259 4147 
z
" transform="scale(0.015625)"/>
      <path id="DejaVuSans-73" d="M 2834 3397 
L 2834 2853 
Q 2591 2978 2328 3040 
Q 2066 3103 1784 3103 
Q 1356 3103 1142 2972 
Q 928 2841 928 2578 
Q 928 2378 1081 2264 
Q 1234 2150 1697 2047 
L 1894 2003 
Q 2506 1872 2764 1633 
Q 3022 1394 3022 966 
Q 3022 478 2636 193 
Q 2250 -91 1575 -91 
Q 1294 -91 989 -36 
Q 684 19 347 128 
L 347 722 
Q 666 556 975 473 
Q 1284 391 1588 391 
Q 1994 391 2212 530 
Q 2431 669 2431 922 
Q 2431 1156 2273 1281 
Q 2116 1406 1581 1522 
L 1381 1569 
Q 847 1681 609 1914 
Q 372 2147 372 2553 
Q 372 3047 722 3315 
Q 1072 3584 1716 3584 
Q 2034 3584 2315 3537 
Q 2597 3491 2834 3397 
z
" transform="scale(0.015625)"/>
      <path id="DejaVuSans-63" d="M 3122 3366 
L 3122 2828 
Q 2878 2963 2633 3030 
Q 2388 3097 2138 3097 
Q 1578 3097 1268 2742 
Q 959 2388 959 1747 
Q 959 1106 1268 751 
Q 1578 397 2138 397 
Q 2388 397 2633 464 
Q 2878 531 3122 666 
L 3122 134 
Q 2881 22 2623 -34 
Q 2366 -91 2075 -91 
Q 1284 -91 818 406 
Q 353 903 353 1747 
Q 353 2603 823 3093 
Q 1294 3584 2113 3584 
Q 2378 3584 2631 3529 
Q 2884 3475 3122 3366 
z
" transform="scale(0.015625)"/>
      <path id="DejaVuSans-64" d="M 2906 2969 
L 2906 4863 
L 3481 4863 
L 3481 0 
L 2906 0 
L 2906 525 
Q 2725 213 2448 61 
Q 2172 -91 1784 -91 
Q 1150 -91 751 415 
Q 353 922 353 1747 
Q 353 2572 751 3078 
Q 1150 3584 1784 3584 
Q 2172 3584 2448 3432 
Q 2725 3281 2906 2969 
z
M 947 1747 
Q 947 1113 1208 752 
Q 1469 391 1925 391 
Q 2381 391 2643 752 
Q 2906 1113 2906 1747 
Q 2906 2381 2643 2742 
Q 2381 3103 1925 3103 
Q 1469 3103 1208 2742 
Q 947 2381 947 1747 
z
" transform="scale(0.015625)"/>
      <path id="DejaVuSans-76" d="M 191 3500 
L 800 3500 
L 1894 563 
L 2988 3500 
L 3597 3500 
L 2284 0 
L 1503 0 
L 191 3500 
z
" transform="scale(0.015625)"/>
      <path id="DejaVuSans-74" d="M 1172 4494 
L 1172 3500 
L 2356 3500 
L 2356 3053 
L 1172 3053 
L 1172 1153 
Q 1172 725 1289 603 
Q 1406 481 1766 481 
L 2356 481 
L 2356 0 
L 1766 0 
Q 1100 0 847 248 
Q 594 497 594 1153 
L 594 3053 
L 172 3053 
L 172 3500 
L 594 3500 
L 594 4494 
L 1172 4494 
z
" transform="scale(0.015625)"/>
     </defs>
     <use xlink:href="#DejaVuSans-55"/>
     <use xlink:href="#DejaVuSans-4b" x="73.193359"/>
     <use xlink:href="#DejaVuSans-20" x="138.769531"/>
     <use xlink:href="#DejaVuSans-52" x="170.556641"/>
     <use xlink:href="#DejaVuSans-65" x="235.539062"/>
     <use xlink:href="#DejaVuSans-73" x="297.0625"/>
     <use xlink:href="#DejaVuSans-65" x="349.162109"/>
     <use xlink:href="#DejaVuSans-61" x="410.685547"/>
     <use xlink:href="#DejaVuSans-72" x="471.964844"/>
     <use xlink:href="#DejaVuSans-63" x="510.828125"/>
     <use xlink:href="#DejaVuSans-68" x="565.808594"/>
     <use xlink:href="#DejaVuSans-20" x="629.1875"/>
     <use xlink:href="#DejaVuSans-61" x="660.974609"/>
     <use xlink:href="#DejaVuSans-6e" x="722.253906"/>
     <use xlink:href="#DejaVuSans-64" x="785.632812"/>
     <use xlink:href="#DejaVuSans-20" x="849.109375"/>
     <use xlink:href="#DejaVuSans-49" x="880.896484"/>
     <use xlink:href="#DejaVuSans-6e" x="910.388672"/>
     <use xlink:href="#DejaVuSans-6e" x="973.767578"/>
     <use xlink:href="#DejaVuSans-6f" x="1037.146484"/>
     <use xlink:href="#DejaVuSans-76" x="1098.328125"/>
     <use xlink:href="#DejaVuSans-61" x="1157.507812"/>
     <use xlink:href="#DejaVuSans-74" x="1218.787109"/>
     <use xlink:href="#DejaVuSans-69" x="1257.996094"/>
     <use xlink:href="#DejaVuSans-6f" x="1285.779297"/>
     <use xlink:href="#DejaVuSans-6e" x="1346.960938"/>
     <use xlink:href="#DejaVuSans-20" x="1410.339844"/>
     <use xlink:href="#DejaVuSans-28" x="1442.126953"/>
     <use xlink:href="#DejaVuSans-55" x="1481.140625"/>
     <use xlink:href="#DejaVuSans-4b" x="1554.333984"/>
     <use xlink:href="#DejaVuSans-29" x="1619.910156"/>
    </g>
   </g>
   <g id="line2d_5">
    <path d="M 11.2 74.010937 
L 21.2 74.010937 
L 31.2 74.010937 
" style="fill: none; stroke: #9467bd; stroke-width: 2; stroke-linecap: square"/>
    <defs>
     <path id="m072df478e3" d="M -0 3 
L 3 -3 
L -3 -3 
z
" style="stroke: #9467bd; stroke-linejoin: miter"/>
    </defs>
    <g>
     <use xlink:href="#m072df478e3" x="21.2" y="74.010937" style="fill: #9467bd; stroke: #9467bd; stroke-linejoin: miter"/>
    </g>
   </g>
   <g id="text_5">
    <!-- NSF (USA) -->
    <g transform="translate(39.2 77.510937) scale(0.1 -0.1)">
     <use xlink:href="#DejaVuSans-4e"/>
     <use xlink:href="#DejaVuSans-53" x="74.804688"/>
     <use xlink:href="#DejaVuSans-46" x="138.28125"/>
     <use xlink:href="#DejaVuSans-20" x="195.800781"/>
     <use xlink:href="#DejaVuSans-28" x="227.587891"/>
     <use xlink:href="#DejaVuSans-55" x="266.601562"/>
     <use xlink:href="#DejaVuSans-53" x="339.794922"/>
     <use xlink:href="#DejaVuSans-41" x="405.146484"/>
     <use xlink:href="#DejaVuSans-29" x="473.554688"/>
    </g>
   </g>
   <g id="line2d_6">
    <path d="M 11.2 88.689062 
L 21.2 88.689062 
L 31.2 88.689062 
" style="fill: none; stroke: #8c564b; stroke-width: 2; stroke-linecap: square"/>
    <defs>
     <path id="m06c9838e33" d="M -3 -0 
L 3 3 
L 3 -3 
z
" style="stroke: #8c564b; stroke-linejoin: miter"/>
    </defs>
    <g>
     <use xlink:href="#m06c9838e33" x="21.2" y="88.689062" style="fill: #8c564b; stroke: #8c564b; stroke-linejoin: miter"/>
    </g>
   </g>
   <g id="text_6">
    <!-- HHMI (USA) -->
    <g transform="translate(39.2 92.189062) scale(0.1 -0.1)">
     <defs>
      <path id="DejaVuSans-4d" d="M 628 4666 
L 1569 4666 
L 2759 1491 
L 3956 4666 
L 4897 4666 
L 4897 0 
L 4281 0 
L 4281 4097 
L 3078 897 
L 2444 897 
L 1241 4097 
L 1241 0 
L 628 0 
L 628 4666 
z
" transform="scale(0.015625)"/>
     </defs>
     <use xlink:href="#DejaVuSans-48"/>
     <use xlink:href="#DejaVuSans-48" x="75.195312"/>
     <use xlink:href="#DejaVuSans-4d" x="150.390625"/>
     <use xlink:href="#DejaVuSans-49" x="236.669922"/>
     <use xlink:href="#DejaVuSans-20" x="266.162109"/>
     <use xlink:href="#DejaVuSans-28" x="297.949219"/>
     <use xlink:href="#DejaVuSans-55" x="336.962891"/>
     <use xlink:href="#DejaVuSans-53" x="410.15625"/>
     <use xlink:href="#DejaVuSans-41" x="475.507812"/>
     <use xlink:href="#DejaVuSans-29" x="543.916016"/>
    </g>
   </g>
   <g id="line2d_7">
    <path d="M 11.2 103.367187 
L 21.2 103.367187 
L 31.2 103.367187 
" style="fill: none; stroke: #e377c2; stroke-width: 2; stroke-linecap: square"/>
    <defs>
     <path id="me082535e74" d="M 3 0 
L -3 -3 
L -3 3 
z
" style="stroke: #e377c2; stroke-linejoin: miter"/>
    </defs>
    <g>
     <use xlink:href="#me082535e74" x="21.2" y="103.367187" style="fill: #e377c2; stroke: #e377c2; stroke-linejoin: miter"/>
    </g>
   </g>
   <g id="text_7">
    <!-- Czech Science Foundation (Czech Republic) -->
    <g transform="translate(39.2 106.867187) scale(0.1 -0.1)">
     <defs>
      <path id="DejaVuSans-7a" d="M 353 3500 
L 3084 3500 
L 3084 2975 
L 922 459 
L 3084 459 
L 3084 0 
L 275 0 
L 275 525 
L 2438 3041 
L 353 3041 
L 353 3500 
z
" transform="scale(0.015625)"/>
      <path id="DejaVuSans-62" d="M 3116 1747 
Q 3116 2381 2855 2742 
Q 2594 3103 2138 3103 
Q 1681 3103 1420 2742 
Q 1159 2381 1159 1747 
Q 1159 1113 1420 752 
Q 1681 391 2138 391 
Q 2594 391 2855 752 
Q 3116 1113 3116 1747 
z
M 1159 2969 
Q 1341 3281 1617 3432 
Q 1894 3584 2278 3584 
Q 2916 3584 3314 3078 
Q 3713 2572 3713 1747 
Q 3713 922 3314 415 
Q 2916 -91 2278 -91 
Q 1894 -91 1617 61 
Q 1341 213 1159 525 
L 1159 0 
L 581 0 
L 581 4863 
L 1159 4863 
L 1159 2969 
z
" transform="scale(0.015625)"/>
      <path id="DejaVuSans-6c" d="M 603 4863 
L 1178 4863 
L 1178 0 
L 603 0 
L 603 4863 
z
" transform="scale(0.015625)"/>
     </defs>
     <use xlink:href="#DejaVuSans-43"/>
     <use xlink:href="#DejaVuSans-7a" x="69.824219"/>
     <use xlink:href="#DejaVuSans-65" x="122.314453"/>
     <use xlink:href="#DejaVuSans-63" x="183.837891"/>
     <use xlink:href="#DejaVuSans-68" x="238.818359"/>
     <use xlink:href="#DejaVuSans-20" x="302.197266"/>
     <use xlink:href="#DejaVuSans-53" x="333.984375"/>
     <use xlink:href="#DejaVuSans-63" x="397.460938"/>
     <use xlink:href="#DejaVuSans-69" x="452.441406"/>
     <use xlink:href="#DejaVuSans-65" x="480.224609"/>
     <use xlink:href="#DejaVuSans-6e" x="541.748047"/>
     <use xlink:href="#DejaVuSans-63" x="605.126953"/>
     <use xlink:href="#DejaVuSans-65" x="660.107422"/>
     <use xlink:href="#DejaVuSans-20" x="721.630859"/>
     <use xlink:href="#DejaVuSans-46" x="753.417969"/>
     <use xlink:href="#DejaVuSans-6f" x="807.3125"/>
     <use xlink:href="#DejaVuSans-75" x="868.494141"/>
     <use xlink:href="#DejaVuSans-6e" x="931.873047"/>
     <use xlink:href="#DejaVuSans-64" x="995.251953"/>
     <use xlink:href="#DejaVuSans-61" x="1058.728516"/>
     <use xlink:href="#DejaVuSans-74" x="1120.007812"/>
     <use xlink:href="#DejaVuSans-69" x="1159.216797"/>
     <use xlink:href="#DejaVuSans-6f" x="1187"/>
     <use xlink:href="#DejaVuSans-6e" x="1248.181641"/>
     <use xlink:href="#DejaVuSans-20" x="1311.560547"/>
     <use xlink:href="#DejaVuSans-28" x="1343.347656"/>
     <use xlink:href="#DejaVuSans-43" x="1382.361328"/>
     <use xlink:href="#DejaVuSans-7a" x="1452.185547"/>
     <use xlink:href="#DejaVuSans-65" x="1504.675781"/>
     <use xlink:href="#DejaVuSans-63" x="1566.199219"/>
     <use xlink:href="#DejaVuSans-68" x="1621.179688"/>
     <use xlink:href="#DejaVuSans-20" x="1684.558594"/>
     <use xlink:href="#DejaVuSans-52" x="1716.345703"/>
     <use xlink:href="#DejaVuSans-65" x="1781.328125"/>
     <use xlink:href="#DejaVuSans-70" x="1842.851562"/>
     <use xlink:href="#DejaVuSans-75" x="1906.328125"/>
     <use xlink:href="#DejaVuSans-62" x="1969.707031"/>
     <use xlink:href="#DejaVuSans-6c" x="2033.183594"/>
     <use xlink:href="#DejaVuSans-69" x="2060.966797"/>
     <use xlink:href="#DejaVuSans-63" x="2088.75"/>
     <use xlink:href="#DejaVuSans-29" x="2143.730469"/>
    </g>
   </g>
   <g id="line2d_8">
    <path d="M 11.2 118.045312 
L 21.2 118.045312 
L 31.2 118.045312 
" style="fill: none; stroke: #7f7f7f; stroke-width: 2; stroke-linecap: square"/>
    <defs>
     <path id="mbd5fac6d7b" d="M 0 -3 
L -2.85317 -0.927051 
L -1.763356 2.427051 
L 1.763356 2.427051 
L 2.85317 -0.927051 
z
" style="stroke: #7f7f7f; stroke-linejoin: miter"/>
    </defs>
    <g>
     <use xlink:href="#mbd5fac6d7b" x="21.2" y="118.045312" style="fill: #7f7f7f; stroke: #7f7f7f; stroke-linejoin: miter"/>
    </g>
   </g>
   <g id="text_8">
    <!-- United States Department of Agriculture (USA) -->
    <g transform="translate(39.2 121.545312) scale(0.1 -0.1)">
     <defs>
      <path id="DejaVuSans-44" d="M 1259 4147 
L 1259 519 
L 2022 519 
Q 2988 519 3436 956 
Q 3884 1394 3884 2338 
Q 3884 3275 3436 3711 
Q 2988 4147 2022 4147 
L 1259 4147 
z
M 628 4666 
L 1925 4666 
Q 3281 4666 3915 4102 
Q 4550 3538 4550 2338 
Q 4550 1131 3912 565 
Q 3275 0 1925 0 
L 628 0 
L 628 4666 
z
" transform="scale(0.015625)"/>
      <path id="DejaVuSans-6d" d="M 3328 2828 
Q 3544 3216 3844 3400 
Q 4144 3584 4550 3584 
Q 5097 3584 5394 3201 
Q 5691 2819 5691 2113 
L 5691 0 
L 5113 0 
L 5113 2094 
Q 5113 2597 4934 2840 
Q 4756 3084 4391 3084 
Q 3944 3084 3684 2787 
Q 3425 2491 3425 1978 
L 3425 0 
L 2847 0 
L 2847 2094 
Q 2847 2600 2669 2842 
Q 2491 3084 2119 3084 
Q 1678 3084 1418 2786 
Q 1159 2488 1159 1978 
L 1159 0 
L 581 0 
L 581 3500 
L 1159 3500 
L 1159 2956 
Q 1356 3278 1631 3431 
Q 1906 3584 2284 3584 
Q 2666 3584 2933 3390 
Q 3200 3197 3328 2828 
z
" transform="scale(0.015625)"/>
      <path id="DejaVuSans-66" d="M 2375 4863 
L 2375 4384 
L 1825 4384 
Q 1516 4384 1395 4259 
Q 1275 4134 1275 3809 
L 1275 3500 
L 2222 3500 
L 2222 3053 
L 1275 3053 
L 1275 0 
L 697 0 
L 697 3053 
L 147 3053 
L 147 3500 
L 697 3500 
L 697 3744 
Q 697 4328 969 4595 
Q 1241 4863 1831 4863 
L 2375 4863 
z
" transform="scale(0.015625)"/>
      <path id="DejaVuSans-67" d="M 2906 1791 
Q 2906 2416 2648 2759 
Q 2391 3103 1925 3103 
Q 1463 3103 1205 2759 
Q 947 2416 947 1791 
Q 947 1169 1205 825 
Q 1463 481 1925 481 
Q 2391 481 2648 825 
Q 2906 1169 2906 1791 
z
M 3481 434 
Q 3481 -459 3084 -895 
Q 2688 -1331 1869 -1331 
Q 1566 -1331 1297 -1286 
Q 1028 -1241 775 -1147 
L 775 -588 
Q 1028 -725 1275 -790 
Q 1522 -856 1778 -856 
Q 2344 -856 2625 -561 
Q 2906 -266 2906 331 
L 2906 616 
Q 2728 306 2450 153 
Q 2172 0 1784 0 
Q 1141 0 747 490 
Q 353 981 353 1791 
Q 353 2603 747 3093 
Q 1141 3584 1784 3584 
Q 2172 3584 2450 3431 
Q 2728 3278 2906 2969 
L 2906 3500 
L 3481 3500 
L 3481 434 
z
" transform="scale(0.015625)"/>
     </defs>
     <use xlink:href="#DejaVuSans-55"/>
     <use xlink:href="#DejaVuSans-6e" x="73.193359"/>
     <use xlink:href="#DejaVuSans-69" x="136.572266"/>
     <use xlink:href="#DejaVuSans-74" x="164.355469"/>
     <use xlink:href="#DejaVuSans-65" x="203.564453"/>
     <use xlink:href="#DejaVuSans-64" x="265.087891"/>
     <use xlink:href="#DejaVuSans-20" x="328.564453"/>
     <use xlink:href="#DejaVuSans-53" x="360.351562"/>
     <use xlink:href="#DejaVuSans-74" x="423.828125"/>
     <use xlink:href="#DejaVuSans-61" x="463.037109"/>
     <use xlink:href="#DejaVuSans-74" x="524.316406"/>
     <use xlink:href="#DejaVuSans-65" x="563.525391"/>
     <use xlink:href="#DejaVuSans-73" x="625.048828"/>
     <use xlink:href="#DejaVuSans-20" x="677.148438"/>
     <use xlink:href="#DejaVuSans-44" x="708.935547"/>
     <use xlink:href="#DejaVuSans-65" x="785.9375"/>
     <use xlink:href="#DejaVuSans-70" x="847.460938"/>
     <use xlink:href="#DejaVuSans-61" x="910.9375"/>
     <use xlink:href="#DejaVuSans-72" x="972.216797"/>
     <use xlink:href="#DejaVuSans-74" x="1013.330078"/>
     <use xlink:href="#DejaVuSans-6d" x="1052.539062"/>
     <use xlink:href="#DejaVuSans-65" x="1149.951172"/>
     <use xlink:href="#DejaVuSans-6e" x="1211.474609"/>
     <use xlink:href="#DejaVuSans-74" x="1274.853516"/>
     <use xlink:href="#DejaVuSans-20" x="1314.0625"/>
     <use xlink:href="#DejaVuSans-6f" x="1345.849609"/>
     <use xlink:href="#DejaVuSans-66" x="1407.03125"/>
     <use xlink:href="#DejaVuSans-20" x="1442.236328"/>
     <use xlink:href="#DejaVuSans-41" x="1474.023438"/>
     <use xlink:href="#DejaVuSans-67" x="1542.431641"/>
     <use xlink:href="#DejaVuSans-72" x="1605.908203"/>
     <use xlink:href="#DejaVuSans-69" x="1647.021484"/>
     <use xlink:href="#DejaVuSans-63" x="1674.804688"/>
     <use xlink:href="#DejaVuSans-75" x="1729.785156"/>
     <use xlink:href="#DejaVuSans-6c" x="1793.164062"/>
     <use xlink:href="#DejaVuSans-74" x="1820.947266"/>
     <use xlink:href="#DejaVuSans-75" x="1860.15625"/>
     <use xlink:href="#DejaVuSans-72" x="1923.535156"/>
     <use xlink:href="#DejaVuSans-65" x="1962.398438"/>
     <use xlink:href="#DejaVuSans-20" x="2023.921875"/>
     <use xlink:href="#DejaVuSans-28" x="2055.708984"/>
     <use xlink:href="#DejaVuSans-55" x="2094.722656"/>
     <use xlink:href="#DejaVuSans-53" x="2167.916016"/>
     <use xlink:href="#DejaVuSans-41" x="2233.267578"/>
     <use xlink:href="#DejaVuSans-29" x="2301.675781"/>
    </g>
   </g>
   <g id="line2d_9">
    <path d="M 11.2 132.723437 
L 21.2 132.723437 
L 31.2 132.723437 
" style="fill: none; stroke: #bcbd22; stroke-width: 2; stroke-linecap: square"/>
    <defs>
     <path id="m9ec39ea11a" d="M 0 -3 
L -2.598076 -1.5 
L -2.598076 1.5 
L -0 3 
L 2.598076 1.5 
L 2.598076 -1.5 
z
" style="stroke: #bcbd22; stroke-linejoin: miter"/>
    </defs>
    <g>
     <use xlink:href="#m9ec39ea11a" x="21.2" y="132.723437" style="fill: #bcbd22; stroke: #bcbd22; stroke-linejoin: miter"/>
    </g>
   </g>
   <g id="text_9">
    <!-- Centre National de la Recherche Scientifique (France) -->
    <g transform="translate(39.2 136.223437) scale(0.1 -0.1)">
     <defs>
      <path id="DejaVuSans-71" d="M 947 1747 
Q 947 1113 1208 752 
Q 1469 391 1925 391 
Q 2381 391 2643 752 
Q 2906 1113 2906 1747 
Q 2906 2381 2643 2742 
Q 2381 3103 1925 3103 
Q 1469 3103 1208 2742 
Q 947 2381 947 1747 
z
M 2906 525 
Q 2725 213 2448 61 
Q 2172 -91 1784 -91 
Q 1150 -91 751 415 
Q 353 922 353 1747 
Q 353 2572 751 3078 
Q 1150 3584 1784 3584 
Q 2172 3584 2448 3432 
Q 2725 3281 2906 2969 
L 2906 3500 
L 3481 3500 
L 3481 -1331 
L 2906 -1331 
L 2906 525 
z
" transform="scale(0.015625)"/>
     </defs>
     <use xlink:href="#DejaVuSans-43"/>
     <use xlink:href="#DejaVuSans-65" x="69.824219"/>
     <use xlink:href="#DejaVuSans-6e" x="131.347656"/>
     <use xlink:href="#DejaVuSans-74" x="194.726562"/>
     <use xlink:href="#DejaVuSans-72" x="233.935547"/>
     <use xlink:href="#DejaVuSans-65" x="272.798828"/>
     <use xlink:href="#DejaVuSans-20" x="334.322266"/>
     <use xlink:href="#DejaVuSans-4e" x="366.109375"/>
     <use xlink:href="#DejaVuSans-61" x="440.914062"/>
     <use xlink:href="#DejaVuSans-74" x="502.193359"/>
     <use xlink:href="#DejaVuSans-69" x="541.402344"/>
     <use xlink:href="#DejaVuSans-6f" x="569.185547"/>
     <use xlink:href="#DejaVuSans-6e" x="630.367188"/>
     <use xlink:href="#DejaVuSans-61" x="693.746094"/>
     <use xlink:href="#DejaVuSans-6c" x="755.025391"/>
     <use xlink:href="#DejaVuSans-20" x="782.808594"/>
     <use xlink:href="#DejaVuSans-64" x="814.595703"/>
     <use xlink:href="#DejaVuSans-65" x="878.072266"/>
     <use xlink:href="#DejaVuSans-20" x="939.595703"/>
     <use xlink:href="#DejaVuSans-6c" x="971.382812"/>
     <use xlink:href="#DejaVuSans-61" x="999.166016"/>
     <use xlink:href="#DejaVuSans-20" x="1060.445312"/>
     <use xlink:href="#DejaVuSans-52" x="1092.232422"/>
     <use xlink:href="#DejaVuSans-65" x="1157.214844"/>
     <use xlink:href="#DejaVuSans-63" x="1218.738281"/>
     <use xlink:href="#DejaVuSans-68" x="1273.71875"/>
     <use xlink:href="#DejaVuSans-65" x="1337.097656"/>
     <use xlink:href="#DejaVuSans-72" x="1398.621094"/>
     <use xlink:href="#DejaVuSans-63" x="1437.484375"/>
     <use xlink:href="#DejaVuSans-68" x="1492.464844"/>
     <use xlink:href="#DejaVuSans-65" x="1555.84375"/>
     <use xlink:href="#DejaVuSans-20" x="1617.367188"/>
     <use xlink:href="#DejaVuSans-53" x="1649.154297"/>
     <use xlink:href="#DejaVuSans-63" x="1712.630859"/>
     <use xlink:href="#DejaVuSans-69" x="1767.611328"/>
     <use xlink:href="#DejaVuSans-65" x="1795.394531"/>
     <use xlink:href="#DejaVuSans-6e" x="1856.917969"/>
     <use xlink:href="#DejaVuSans-74" x="1920.296875"/>
     <use xlink:href="#DejaVuSans-69" x="1959.505859"/>
     <use xlink:href="#DejaVuSans-66" x="1987.289062"/>
     <use xlink:href="#DejaVuSans-69" x="2022.494141"/>
     <use xlink:href="#DejaVuSans-71" x="2050.277344"/>
     <use xlink:href="#DejaVuSans-75" x="2113.753906"/>
     <use xlink:href="#DejaVuSans-65" x="2177.132812"/>
     <use xlink:href="#DejaVuSans-20" x="2238.65625"/>
     <use xlink:href="#DejaVuSans-28" x="2270.443359"/>
     <use xlink:href="#DejaVuSans-46" x="2309.457031"/>
     <use xlink:href="#DejaVuSans-72" x="2359.726562"/>
     <use xlink:href="#DejaVuSans-61" x="2400.839844"/>
     <use xlink:href="#DejaVuSans-6e" x="2462.119141"/>
     <use xlink:href="#DejaVuSans-63" x="2525.498047"/>
     <use xlink:href="#DejaVuSans-65" x="2580.478516"/>
     <use xlink:href="#DejaVuSans-29" x="2642.001953"/>
    </g>
   </g>
   <g id="line2d_10">
    <path d="M 11.2 147.401562 
L 21.2 147.401562 
L 31.2 147.401562 
" style="fill: none; stroke: #17becf; stroke-width: 2; stroke-linecap: square"/>
    <defs>
     <path id="m4b65a11d7e" d="M 0 -3 
L -0.673542 -0.927051 
L -2.85317 -0.927051 
L -1.089814 0.354102 
L -1.763356 2.427051 
L -0 1.145898 
L 1.763356 2.427051 
L 1.089814 0.354102 
L 2.85317 -0.927051 
L 0.673542 -0.927051 
z
" style="stroke: #17becf; stroke-linejoin: bevel"/>
    </defs>
    <g>
     <use xlink:href="#m4b65a11d7e" x="21.2" y="147.401562" style="fill: #17becf; stroke: #17becf; stroke-linejoin: bevel"/>
    </g>
   </g>
   <g id="text_10">
    <!-- Department of Biotechnology (India) -->
    <g transform="translate(39.2 150.901562) scale(0.1 -0.1)">
     <defs>
      <path id="DejaVuSans-42" d="M 1259 2228 
L 1259 519 
L 2272 519 
Q 2781 519 3026 730 
Q 3272 941 3272 1375 
Q 3272 1813 3026 2020 
Q 2781 2228 2272 2228 
L 1259 2228 
z
M 1259 4147 
L 1259 2741 
L 2194 2741 
Q 2656 2741 2882 2914 
Q 3109 3088 3109 3444 
Q 3109 3797 2882 3972 
Q 2656 4147 2194 4147 
L 1259 4147 
z
M 628 4666 
L 2241 4666 
Q 2963 4666 3353 4366 
Q 3744 4066 3744 3513 
Q 3744 3084 3544 2831 
Q 3344 2578 2956 2516 
Q 3422 2416 3680 2098 
Q 3938 1781 3938 1306 
Q 3938 681 3513 340 
Q 3088 0 2303 0 
L 628 0 
L 628 4666 
z
" transform="scale(0.015625)"/>
      <path id="DejaVuSans-79" d="M 2059 -325 
Q 1816 -950 1584 -1140 
Q 1353 -1331 966 -1331 
L 506 -1331 
L 506 -850 
L 844 -850 
Q 1081 -850 1212 -737 
Q 1344 -625 1503 -206 
L 1606 56 
L 191 3500 
L 800 3500 
L 1894 763 
L 2988 3500 
L 3597 3500 
L 2059 -325 
z
" transform="scale(0.015625)"/>
     </defs>
     <use xlink:href="#DejaVuSans-44"/>
     <use xlink:href="#DejaVuSans-65" x="77.001953"/>
     <use xlink:href="#DejaVuSans-70" x="138.525391"/>
     <use xlink:href="#DejaVuSans-61" x="202.001953"/>
     <use xlink:href="#DejaVuSans-72" x="263.28125"/>
     <use xlink:href="#DejaVuSans-74" x="304.394531"/>
     <use xlink:href="#DejaVuSans-6d" x="343.603516"/>
     <use xlink:href="#DejaVuSans-65" x="441.015625"/>
     <use xlink:href="#DejaVuSans-6e" x="502.539062"/>
     <use xlink:href="#DejaVuSans-74" x="565.917969"/>
     <use xlink:href="#DejaVuSans-20" x="605.126953"/>
     <use xlink:href="#DejaVuSans-6f" x="636.914062"/>
     <use xlink:href="#DejaVuSans-66" x="698.095703"/>
     <use xlink:href="#DejaVuSans-20" x="733.300781"/>
     <use xlink:href="#DejaVuSans-42" x="765.087891"/>
     <use xlink:href="#DejaVuSans-69" x="833.691406"/>
     <use xlink:href="#DejaVuSans-6f" x="861.474609"/>
     <use xlink:href="#DejaVuSans-74" x="922.65625"/>
     <use xlink:href="#DejaVuSans-65" x="961.865234"/>
     <use xlink:href="#DejaVuSans-63" x="1023.388672"/>
     <use xlink:href="#DejaVuSans-68" x="1078.369141"/>
     <use xlink:href="#DejaVuSans-6e" x="1141.748047"/>
     <use xlink:href="#DejaVuSans-6f" x="1205.126953"/>
     <use xlink:href="#DejaVuSans-6c" x="1266.308594"/>
     <use xlink:href="#DejaVuSans-6f" x="1294.091797"/>
     <use xlink:href="#DejaVuSans-67" x="1355.273438"/>
     <use xlink:href="#DejaVuSans-79" x="1418.75"/>
     <use xlink:href="#DejaVuSans-20" x="1477.929688"/>
     <use xlink:href="#DejaVuSans-28" x="1509.716797"/>
     <use xlink:href="#DejaVuSans-49" x="1548.730469"/>
     <use xlink:href="#DejaVuSans-6e" x="1578.222656"/>
     <use xlink:href="#DejaVuSans-64" x="1641.601562"/>
     <use xlink:href="#DejaVuSans-69" x="1705.078125"/>
     <use xlink:href="#DejaVuSans-61" x="1732.861328"/>
     <use xlink:href="#DejaVuSans-29" x="1794.140625"/>
    </g>
   </g>
  </g>
 </g>
</svg>
